<svg xmlns="http://www.w3.org/2000/svg" viewBox="0 0 32 32" fill="none">
  <rect width="32" height="32" rx="6" fill="#1c1917"/>
  <path d="M8 6h2v20H8V6zm14 0h2v20h-2V6z" fill="#d97706" opacity="0.8"/>
  <path d="M11 8h10v2H11V8zm0 4h10v1H11v-1zm0 3h10v1H11v-1zm0 3h8v1h-8v-1zm0 3h10v1H11v-1zm0 3h6v1h-6v-1z" fill="#f5f5f4" opacity="0.6"/>
  <circle cx="24" cy="24" r="5" fill="#d97706"/>
  <path d="M22 24l2 2 3-3" stroke="#1c1917" stroke-width="1.5" stroke-linecap="round" stroke-linejoin="round"/>
</svg>
